<svg width="67" height="18" viewBox="0 0 67 18" fill="none" xmlns="http://www.w3.org/2000/svg">
<path d="M11.86 11.92C11.86 12.6533 11.6667 13.3333 11.28 13.96C10.9067 14.5733 10.3467 15.08 9.6 15.48C8.86667 15.8667 7.99333 16.08 6.98 16.12V17.74H5.7V16.1C4.28667 15.98 3.14667 15.56 2.28 14.84C1.41333 14.1067 0.953333 13.1133 0.9 11.86H4.54C4.62 12.66 5.00667 13.1733 5.7 13.4V10.24C4.66 9.97333 3.82667 9.71333 3.2 9.46C2.58667 9.20667 2.04667 8.8 1.58 8.24C1.11333 7.68 0.88 6.91333 0.88 5.94C0.88 4.72667 1.32667 3.75333 2.22 3.02C3.12667 2.28667 4.28667 1.87333 5.7 1.78V0.159999H6.98V1.78C8.38 1.88667 9.48667 2.29333 10.3 3C11.1133 3.70667 11.5667 4.68667 11.66 5.94H8C7.92 5.22 7.58 4.75333 6.98 4.54V7.64C8.08667 7.94667 8.94 8.22 9.54 8.46C10.14 8.7 10.6733 9.1 11.14 9.66C11.62 10.2067 11.86 10.96 11.86 11.92ZM4.5 5.78C4.5 6.11333 4.6 6.39333 4.8 6.62C5.01333 6.84667 5.31333 7.04667 5.7 7.22V4.44C5.32667 4.50667 5.03333 4.65333 4.82 4.88C4.60667 5.09333 4.5 5.39333 4.5 5.78ZM6.98 13.46C7.38 13.3933 7.69333 13.2333 7.92 12.98C8.16 12.7267 8.28 12.4133 8.28 12.04C8.28 11.6933 8.16667 11.4133 7.94 11.2C7.72667 10.9733 7.40667 10.78 6.98 10.62V13.46ZM25.5241 11.92C25.5241 12.6533 25.3307 13.3333 24.9441 13.96C24.5707 14.5733 24.0107 15.08 23.2641 15.48C22.5307 15.8667 21.6574 16.08 20.6441 16.12V17.74H19.3641V16.1C17.9507 15.98 16.8107 15.56 15.9441 14.84C15.0774 14.1067 14.6174 13.1133 14.5641 11.86H18.2041C18.2841 12.66 18.6707 13.1733 19.3641 13.4V10.24C18.3241 9.97333 17.4907 9.71333 16.8641 9.46C16.2507 9.20667 15.7107 8.8 15.2441 8.24C14.7774 7.68 14.5441 6.91333 14.5441 5.94C14.5441 4.72667 14.9907 3.75333 15.8841 3.02C16.7907 2.28667 17.9507 1.87333 19.3641 1.78V0.159999H20.6441V1.78C22.0441 1.88667 23.1507 2.29333 23.9641 3C24.7774 3.70667 25.2307 4.68667 25.3241 5.94H21.6641C21.5841 5.22 21.2441 4.75333 20.6441 4.54V7.64C21.7507 7.94667 22.6041 8.22 23.2041 8.46C23.8041 8.7 24.3374 9.1 24.8041 9.66C25.2841 10.2067 25.5241 10.96 25.5241 11.92ZM18.1641 5.78C18.1641 6.11333 18.2641 6.39333 18.4641 6.62C18.6774 6.84667 18.9774 7.04667 19.3641 7.22V4.44C18.9907 4.50667 18.6974 4.65333 18.4841 4.88C18.2707 5.09333 18.1641 5.39333 18.1641 5.78ZM20.6441 13.46C21.0441 13.3933 21.3574 13.2333 21.5841 12.98C21.8241 12.7267 21.9441 12.4133 21.9441 12.04C21.9441 11.6933 21.8307 11.4133 21.6041 11.2C21.3907 10.9733 21.0707 10.78 20.6441 10.62V13.46ZM39.1881 11.92C39.1881 12.6533 38.9948 13.3333 38.6081 13.96C38.2348 14.5733 37.6748 15.08 36.9281 15.48C36.1948 15.8667 35.3215 16.08 34.3081 16.12V17.74H33.0281V16.1C31.6148 15.98 30.4748 15.56 29.6081 14.84C28.7415 14.1067 28.2815 13.1133 28.2281 11.86H31.8681C31.9481 12.66 32.3348 13.1733 33.0281 13.4V10.24C31.9881 9.97333 31.1548 9.71333 30.5281 9.46C29.9148 9.20667 29.3748 8.8 28.9081 8.24C28.4415 7.68 28.2081 6.91333 28.2081 5.94C28.2081 4.72667 28.6548 3.75333 29.5481 3.02C30.4548 2.28667 31.6148 1.87333 33.0281 1.78V0.159999H34.3081V1.78C35.7081 1.88667 36.8148 2.29333 37.6281 3C38.4415 3.70667 38.8948 4.68667 38.9881 5.94H35.3281C35.2481 5.22 34.9081 4.75333 34.3081 4.54V7.64C35.4148 7.94667 36.2681 8.22 36.8681 8.46C37.4681 8.7 38.0015 9.1 38.4681 9.66C38.9481 10.2067 39.1881 10.96 39.1881 11.92ZM31.8281 5.78C31.8281 6.11333 31.9281 6.39333 32.1281 6.62C32.3415 6.84667 32.6415 7.04667 33.0281 7.22V4.44C32.6548 4.50667 32.3615 4.65333 32.1481 4.88C31.9348 5.09333 31.8281 5.39333 31.8281 5.78ZM34.3081 13.46C34.7081 13.3933 35.0215 13.2333 35.2481 12.98C35.4881 12.7267 35.6081 12.4133 35.6081 12.04C35.6081 11.6933 35.4948 11.4133 35.2681 11.2C35.0548 10.9733 34.7348 10.78 34.3081 10.62V13.46Z" fill="#AC58F5"/>
<path d="M52.8522 11.92C52.8522 12.6533 52.6589 13.3333 52.2722 13.96C51.8989 14.5733 51.3389 15.08 50.5922 15.48C49.8589 15.8667 48.9855 16.08 47.9722 16.12V17.74H46.6922V16.1C45.2789 15.98 44.1389 15.56 43.2722 14.84C42.4055 14.1067 41.9455 13.1133 41.8922 11.86H45.5322C45.6122 12.66 45.9989 13.1733 46.6922 13.4V10.24C45.6522 9.97333 44.8189 9.71333 44.1922 9.46C43.5789 9.20667 43.0389 8.8 42.5722 8.24C42.1055 7.68 41.8722 6.91333 41.8722 5.94C41.8722 4.72667 42.3189 3.75333 43.2122 3.02C44.1189 2.28667 45.2789 1.87333 46.6922 1.78V0.159999H47.9722V1.78C49.3722 1.88667 50.4789 2.29333 51.2922 3C52.1055 3.70667 52.5589 4.68667 52.6522 5.94H48.9922C48.9122 5.22 48.5722 4.75333 47.9722 4.54V7.64C49.0789 7.94667 49.9322 8.22 50.5322 8.46C51.1322 8.7 51.6655 9.1 52.1322 9.66C52.6122 10.2067 52.8522 10.96 52.8522 11.92ZM45.4922 5.78C45.4922 6.11333 45.5922 6.39333 45.7922 6.62C46.0055 6.84667 46.3055 7.04667 46.6922 7.22V4.44C46.3189 4.50667 46.0255 4.65333 45.8122 4.88C45.5989 5.09333 45.4922 5.39333 45.4922 5.78ZM47.9722 13.46C48.3722 13.3933 48.6855 13.2333 48.9122 12.98C49.1522 12.7267 49.2722 12.4133 49.2722 12.04C49.2722 11.6933 49.1589 11.4133 48.9322 11.2C48.7189 10.9733 48.3989 10.78 47.9722 10.62V13.46ZM66.5163 11.92C66.5163 12.6533 66.3229 13.3333 65.9363 13.96C65.5629 14.5733 65.0029 15.08 64.2563 15.48C63.5229 15.8667 62.6496 16.08 61.6363 16.12V17.74H60.3563V16.1C58.9429 15.98 57.8029 15.56 56.9363 14.84C56.0696 14.1067 55.6096 13.1133 55.5563 11.86H59.1963C59.2763 12.66 59.6629 13.1733 60.3563 13.4V10.24C59.3163 9.97333 58.4829 9.71333 57.8563 9.46C57.2429 9.20667 56.7029 8.8 56.2363 8.24C55.7696 7.68 55.5363 6.91333 55.5363 5.94C55.5363 4.72667 55.9829 3.75333 56.8763 3.02C57.7829 2.28667 58.9429 1.87333 60.3563 1.78V0.159999H61.6363V1.78C63.0363 1.88667 64.1429 2.29333 64.9563 3C65.7696 3.70667 66.2229 4.68667 66.3163 5.94H62.6563C62.5763 5.22 62.2363 4.75333 61.6363 4.54V7.64C62.7429 7.94667 63.5963 8.22 64.1963 8.46C64.7963 8.7 65.3296 9.1 65.7963 9.66C66.2763 10.2067 66.5163 10.96 66.5163 11.92ZM59.1563 5.78C59.1563 6.11333 59.2563 6.39333 59.4563 6.62C59.6696 6.84667 59.9696 7.04667 60.3563 7.22V4.44C59.9829 4.50667 59.6896 4.65333 59.4763 4.88C59.2629 5.09333 59.1563 5.39333 59.1563 5.78ZM61.6363 13.46C62.0363 13.3933 62.3496 13.2333 62.5763 12.98C62.8163 12.7267 62.9363 12.4133 62.9363 12.04C62.9363 11.6933 62.8229 11.4133 62.5963 11.2C62.3829 10.9733 62.0629 10.78 61.6363 10.62V13.46Z" fill="#AC58F5"/>
<path d="M52.8522 11.92C52.8522 12.6533 52.6589 13.3333 52.2722 13.96C51.8989 14.5733 51.3389 15.08 50.5922 15.48C49.8589 15.8667 48.9855 16.08 47.9722 16.12V17.74H46.6922V16.1C45.2789 15.98 44.1389 15.56 43.2722 14.84C42.4055 14.1067 41.9455 13.1133 41.8922 11.86H45.5322C45.6122 12.66 45.9989 13.1733 46.6922 13.4V10.24C45.6522 9.97333 44.8189 9.71333 44.1922 9.46C43.5789 9.20667 43.0389 8.8 42.5722 8.24C42.1055 7.68 41.8722 6.91333 41.8722 5.94C41.8722 4.72667 42.3189 3.75333 43.2122 3.02C44.1189 2.28667 45.2789 1.87333 46.6922 1.78V0.159999H47.9722V1.78C49.3722 1.88667 50.4789 2.29333 51.2922 3C52.1055 3.70667 52.5589 4.68667 52.6522 5.94H48.9922C48.9122 5.22 48.5722 4.75333 47.9722 4.54V7.64C49.0789 7.94667 49.9322 8.22 50.5322 8.46C51.1322 8.7 51.6655 9.1 52.1322 9.66C52.6122 10.2067 52.8522 10.96 52.8522 11.92ZM45.4922 5.78C45.4922 6.11333 45.5922 6.39333 45.7922 6.62C46.0055 6.84667 46.3055 7.04667 46.6922 7.22V4.44C46.3189 4.50667 46.0255 4.65333 45.8122 4.88C45.5989 5.09333 45.4922 5.39333 45.4922 5.78ZM47.9722 13.46C48.3722 13.3933 48.6855 13.2333 48.9122 12.98C49.1522 12.7267 49.2722 12.4133 49.2722 12.04C49.2722 11.6933 49.1589 11.4133 48.9322 11.2C48.7189 10.9733 48.3989 10.78 47.9722 10.62V13.46ZM66.5163 11.92C66.5163 12.6533 66.3229 13.3333 65.9363 13.96C65.5629 14.5733 65.0029 15.08 64.2563 15.48C63.5229 15.8667 62.6496 16.08 61.6363 16.12V17.74H60.3563V16.1C58.9429 15.98 57.8029 15.56 56.9363 14.84C56.0696 14.1067 55.6096 13.1133 55.5563 11.86H59.1963C59.2763 12.66 59.6629 13.1733 60.3563 13.4V10.24C59.3163 9.97333 58.4829 9.71333 57.8563 9.46C57.2429 9.20667 56.7029 8.8 56.2363 8.24C55.7696 7.68 55.5363 6.91333 55.5363 5.94C55.5363 4.72667 55.9829 3.75333 56.8763 3.02C57.7829 2.28667 58.9429 1.87333 60.3563 1.78V0.159999H61.6363V1.78C63.0363 1.88667 64.1429 2.29333 64.9563 3C65.7696 3.70667 66.2229 4.68667 66.3163 5.94H62.6563C62.5763 5.22 62.2363 4.75333 61.6363 4.54V7.64C62.7429 7.94667 63.5963 8.22 64.1963 8.46C64.7963 8.7 65.3296 9.1 65.7963 9.66C66.2763 10.2067 66.5163 10.96 66.5163 11.92ZM59.1563 5.78C59.1563 6.11333 59.2563 6.39333 59.4563 6.62C59.6696 6.84667 59.9696 7.04667 60.3563 7.22V4.44C59.9829 4.50667 59.6896 4.65333 59.4763 4.88C59.2629 5.09333 59.1563 5.39333 59.1563 5.78ZM61.6363 13.46C62.0363 13.3933 62.3496 13.2333 62.5763 12.98C62.8163 12.7267 62.9363 12.4133 62.9363 12.04C62.9363 11.6933 62.8229 11.4133 62.5963 11.2C62.3829 10.9733 62.0629 10.78 61.6363 10.62V13.46Z" fill="#D9D9D9"/>
</svg>
