<svg width="140" height="24" viewBox="0 0 140 24" fill="none" xmlns="http://www.w3.org/2000/svg">
<path d="M11.8882 1L14.6946 9.63729H23.7764L16.4291 14.9754L19.2355 23.6127L11.8882 18.2746L4.54089 23.6127L7.34732 14.9754L0 9.63729H9.08178L11.8882 1Z" fill="#AC58F5"/>
<path d="M40.8882 1L43.6946 9.63729H52.7764L45.4291 14.9754L48.2355 23.6127L40.8882 18.2746L33.5409 23.6127L36.3473 14.9754L29 9.63729H38.0818L40.8882 1Z" fill="#AC58F5"/>
<path d="M69.8882 1L72.6946 9.63729H81.7764L74.4291 14.9754L77.2355 23.6127L69.8882 18.2746L62.5409 23.6127L65.3473 14.9754L58 9.63729H67.0818L69.8882 1Z" fill="#AC58F5"/>
<path d="M98.8882 0L101.695 8.63729H110.776L103.429 13.9754L106.236 22.6127L98.8882 17.2746L91.5409 22.6127L94.3473 13.9754L87 8.63729H96.0818L98.8882 0Z" fill="#AC58F5"/>
<path d="M127.888 1L130.695 9.63729H139.776L132.429 14.9754L135.236 23.6127L127.888 18.2746L120.541 23.6127L123.347 14.9754L116 9.63729H125.082L127.888 1Z" fill="#D9D9D9"/>
</svg>
